<svg width="58" height="48" viewBox="0 0 58 48" fill="none" xmlns="http://www.w3.org/2000/svg">
<path d="M22.6024 2.16742C22.6031 2.35125 22.5804 2.53444 22.5349 2.71252L21.3011 7.01968L20.2931 10.5308L18.3177 17.4008L18.1767 17.8949V17.9104L18.1403 18.0428L13.3988 34.5741L13.3478 34.7471C13.2015 35.1621 12.9327 35.523 12.577 35.7819C12.2212 36.0409 11.7952 36.1858 11.3553 36.1974C10.9154 36.2091 10.4823 36.087 10.1134 35.8472C9.74439 35.6074 9.4569 35.2611 9.28894 34.8544C9.23147 34.7152 9.18967 34.5701 9.16434 34.4218L2.31512 10.5308L1.30711 7.01968L0.113082 2.86654L0.0568416 2.66147C-0.0153426 2.35226 -0.0188186 2.03098 0.0466586 1.72029C0.112136 1.40959 0.244972 1.11704 0.435802 0.863261C0.626632 0.609482 0.87081 0.400652 1.15112 0.251497C1.43143 0.102342 1.74104 0.0164933 2.05813 2.7635e-06H20.4322C20.7172 -0.000452201 20.9994 0.0552741 21.2629 0.163993C21.5261 0.272713 21.7656 0.432292 21.9671 0.633602C22.1689 0.834909 22.3288 1.074 22.4379 1.33719C22.5471 1.60038 22.6024 1.8825 22.6024 2.16742Z" fill="white"/>
<path d="M47.0732 17.5516C47.0737 18.8406 46.7196 20.1049 46.0496 21.2061C45.3795 22.3073 44.4195 23.2029 43.2744 23.7949C42.1294 24.3868 40.8437 24.6523 39.5578 24.5623C38.2719 24.4725 37.0356 24.0304 35.9842 23.2847C34.9327 22.539 34.1068 21.5183 33.5968 20.3346C33.0866 19.1507 32.9121 17.8494 33.0922 16.5731C33.2724 15.2967 33.8002 14.0945 34.6179 13.0981C35.4356 12.1017 36.5119 11.3495 37.7286 10.9239C38.4726 10.6613 39.2557 10.5279 40.0447 10.5293C40.9671 10.529 41.8804 10.7104 42.7326 11.0632C43.5846 11.4159 44.3589 11.9332 45.0111 12.5853C45.6632 13.2375 46.1805 14.0117 46.5332 14.8639C46.8861 15.716 47.0674 16.6293 47.067 17.5516H47.0732Z" fill="white"/>
<path d="M57.6064 17.5528C57.6064 19.8581 57.1523 22.1408 56.2701 24.2706C55.3877 26.4004 54.0945 28.3356 52.4644 29.9655C50.8341 31.5956 48.8987 32.8884 46.7689 33.7704C44.6389 34.6524 42.3561 35.1062 40.0508 35.1058C39.0411 35.1051 38.0333 35.0162 37.0389 34.8403H36.9964C36.9383 34.8338 36.8805 34.8242 36.8233 34.8116L36.7161 34.7891C36.2507 34.6689 35.8382 34.3974 35.544 34.0174C35.2496 33.6371 35.0901 33.1701 35.0903 32.6893C35.0901 32.5221 35.109 32.3554 35.1465 32.1926V32.1754L35.1829 32.0428L35.8854 29.5935V29.5761L35.9192 29.4602C36.0564 29.0186 36.3311 28.6326 36.7033 28.3583C37.0755 28.0839 37.5257 27.9358 37.9881 27.9356C38.0987 27.9353 38.2091 27.9437 38.3186 27.9608C38.8858 28.0526 39.4596 28.0989 40.0343 28.0991C42.4607 28.0967 44.8118 27.2569 46.6905 25.7216C48.5693 24.1864 49.8606 22.0496 50.3462 19.6725C50.832 17.2953 50.4825 14.8233 49.3566 12.6741C48.2306 10.5248 46.3974 8.83003 44.1668 7.87594L44.0569 7.83094C43.5926 7.62146 43.2174 7.25496 42.9969 6.79598C42.7764 6.337 42.7249 5.81496 42.8514 5.32176L42.8852 5.20322L43.5878 2.75372L43.6277 2.61009V2.58587C43.7694 2.15049 44.0456 1.77124 44.4163 1.50248C44.787 1.23372 45.2333 1.08928 45.6913 1.08987C45.9456 1.08859 46.1979 1.13344 46.4363 1.22225L46.5038 1.24734L46.5686 1.2759L46.6309 1.30445C49.8709 2.61111 52.6468 4.85591 54.6023 7.75093C56.5579 10.6459 57.6039 14.0592 57.6064 17.5528Z" fill="white"/>
<path d="M40.1582 2.17005C40.1576 2.34493 40.1366 2.51914 40.0959 2.6892L40.0562 2.82504L39.2091 5.73742C39.0718 6.26619 38.7403 6.72379 38.2806 7.01886C38.0964 7.13859 37.8943 7.22826 37.6819 7.28447H37.6663L37.5729 7.30697H37.5478C35.7386 7.74872 34.0789 8.66224 32.7379 9.95439C31.3967 11.2466 30.4221 12.8712 29.9136 14.6627C29.4049 16.4542 29.3801 18.3486 29.8421 20.1527C30.3041 21.9568 31.2362 23.6063 32.5433 24.9328C32.8033 25.1974 32.9916 25.5238 33.0902 25.8816C33.189 26.2391 33.1948 26.616 33.1074 26.9764V26.9955L33.09 27.0578L33.0728 27.1114L31.4288 32.841L27.5672 46.3768L27.5222 46.5291C27.3746 46.9571 27.0977 47.3288 26.7294 47.5924C26.3612 47.8558 25.9202 47.9983 25.4674 48H15.9385C15.6536 48.0004 15.3715 47.9445 15.1082 47.8357C14.845 47.727 14.6057 47.5674 14.4042 47.3661C14.2027 47.1649 14.0428 46.9258 13.9337 46.6626C13.8246 46.3995 13.7684 46.1175 13.7684 45.8325C13.7678 45.6632 13.7876 45.4944 13.8273 45.3298L13.8558 45.2252V45.2001L20.0648 23.5433L23.0368 13.1845L23.0543 13.1171L23.0768 13.0383L23.274 12.3522V12.3323L23.7844 10.5516L24.7924 7.04047L26.3282 1.676L26.3681 1.54016C26.5044 1.09253 26.7816 0.70086 27.1584 0.423379C27.5351 0.145898 27.9915 -0.00257533 28.4593 3.38083e-05H37.9883C38.1692 -0.000680304 38.3496 0.0220039 38.5247 0.0675223C38.9918 0.187086 39.4058 0.458531 39.7016 0.839151C39.9975 1.21977 40.1576 1.68796 40.1582 2.17005Z" fill="white"/>
</svg>
